<svg width="826" height="1000" xmlns="http://www.w3.org/2000/svg" xmlns:svg="http://www.w3.org/2000/svg">
<path d="m269.3,241.35c-8.7,0 -16.9,3.5 -23.1,9.6l-230.1,226.4c-6.2,6.1 -9.8,14.1 -9.8,22.7s3.6,16.7 9.8,22.7l230.1,226.3c6.2,6.1 14.4,9.6 23.1,9.6c18,0 32.9,-14.7 32.9,-32.3l0,-452.6c-0.1,-17.7 -14.9,-32.4 -32.9,-32.4zm540.7,236l-229.3,-226.4c-6.1,-6.1 -14.3,-9.6 -23,-9.6c-17.9,0 -32.8,14.6 -32.8,32.3l0,452.7c0,17.7 14.8,32.3 32.8,32.3c8.7,0 16.9,-3.5 23,-9.6l229.3,-226.2c6.1,-6.1 9.7,-14.1 9.7,-22.7s-3.5,-16.8 -9.7,-22.8z" />
</svg>
