<svg width="1000" height="1000" xmlns="http://www.w3.org/2000/svg" xmlns:svg="http://www.w3.org/2000/svg">
<path d="m715.3,229.0c-31.802,0 -57.713,25.72 -57.713,57.35c0,31.595 25.91,57.316 57.713,57.316c86.891,0 157.625,70.147 157.625,156.382s-58.638,156.411 -130.661,156.411l-102.79,0l62.874,-62.466c22.475,-22.302 22.475,-58.685 0,-81.057c-10.927,-10.818 -25.421,-16.79 -40.83,-16.79c-15.415,0 -29.904,5.973 -40.836,16.79l-199.561,198.07l-2.825,2.773l202.386,200.838c22.538,22.337 59.134,22.337 81.667,-0.029c22.475,-22.366 22.475,-58.691 0,-81.057l-62.874,-62.437l102.79,0c135.754,0 246.162,-121.582 246.162,-271.048c-0.001,-149.458 -122.498,-271.046 -273.127,-271.046zm-417.597,258.159c10.869,10.846 25.364,16.819 40.836,16.819c15.409,0 29.898,-5.973 40.767,-16.79l199.561,-198.065l2.819,-2.773l-202.379,-200.844c-10.927,-10.818 -25.421,-16.79 -40.83,-16.79s-29.84,5.973 -40.773,16.79c-10.933,10.852 -16.946,25.231 -16.946,40.56c0,15.294 6.013,29.679 16.946,40.502l62.873,62.432l-102.847,0c-135.76,0 -246.162,121.588 -246.162,271.048c0,149.466 122.497,271.048 273.12,271.048c31.808,0 57.719,-25.715 57.719,-57.316s-25.91,-57.321 -57.719,-57.321c-86.885,0 -157.556,-70.176 -157.556,-156.411s58.576,-156.382 130.599,-156.382l102.846,0l-62.874,62.408c-22.596,22.365 -22.596,58.783 0,81.085z" />
</svg>
