<svg width="708" height="1000" xmlns="http://www.w3.org/2000/svg" xmlns:svg="http://www.w3.org/2000/svg">
<path d="m419.5,68.0c-32.763,-37.09 -98.192,-37.09 -130.956,0c-28.574,32.401 -279.317,323.312 -279.363,556.833c-0.04,86.362 30.692,167.447 86.471,228.365c44.484,48.604 125.478,106.541 258.459,106.581c226.259,0 344.717,-168.46 344.751,-334.912c0.047,-233.555 -250.782,-524.426 -279.362,-556.867zm-65.366,787.448c-70.987,0 -126.795,-21.71 -166.038,-64.543c-34.892,-38.126 -54.87,-92.697 -54.87,-149.898c0,-174.847 138.838,-372.371 220.799,-460.367c88.105,88.715 220.804,285.52 220.804,460.309c-0.057,98.97 -57.856,214.499 -220.695,214.499zm-19.385,-75.2c8.924,-0.449 74.722,6.669 132.555,-46.4c57.839,-53.063 36.849,-110.31 14.563,-126.18c-22.28,-15.87 -59.094,-2.866 -73.438,38.684c-14.345,41.55 -89.296,47.77 -89.296,47.77c-46.383,1.813 -55.734,89.665 15.616,86.126z" />
</svg>
