<svg width="940" height="1000" xmlns="http://www.w3.org/2000/svg" xmlns:svg="http://www.w3.org/2000/svg">
<path d="m726.5,285.0c-10.513,1.013 -21.037,-2.716 -28.724,-10.167c-7.693,-7.457 -11.744,-17.866 -11.059,-28.419l3.717,-56.596c0.535,-8.464 4.085,-16.387 10.006,-22.337l64.698,-64.698c9.425,-9.425 12.596,-23.488 8.176,-36.342c-4.413,-12.843 -15.657,-22.262 -29.029,-24.328c-77.765,-12.141 -154.886,19.46 -200.533,82.173c-45.647,62.707 -52.373,146.301 -17.498,217.375l-217.432,217.426c-81.839,-40.008 -178.8,-24.644 -241.956,38.345c-43.638,46.861 -63.881,111.11 -55.29,175.532c1.485,13.729 10.743,25.565 23.776,30.37c13.033,4.81 27.487,1.726 37.113,-7.906l62.109,-62.109c5.955,-5.927 13.884,-9.477 22.343,-10.006l56.608,-3.717c10.541,-0.685 20.956,3.372 28.413,11.053c7.457,7.687 11.186,18.211 10.167,28.724l-5.351,54.37c-0.788,8.038 -4.31,15.513 -9.972,21.18l-62.408,62.402c-9.638,9.632 -12.722,24.086 -7.912,37.119c4.805,13.027 16.641,22.285 30.381,23.77c64.456,8.74 128.809,-11.433 175.733,-55.083c63.001,-63.19 78.329,-160.203 38.247,-242.042l217.386,-217.375c71.073,34.927 154.702,28.223 217.432,-17.435c62.736,-45.652 94.314,-122.808 82.121,-200.59c-2.066,-13.372 -11.479,-24.616 -24.328,-29.029c-12.843,-4.413 -26.911,-1.249 -36.342,8.176l-65.089,65.095c-5.668,5.668 -13.142,9.178 -21.186,9.966l-54.317,5.103z" />
</svg>
